<?xml version="1.0" encoding="UTF-8" standalone="no"?>
<svg
   xmlns:dc="http://purl.org/dc/elements/1.1/"
   xmlns:cc="http://creativecommons.org/ns#"
   xmlns:rdf="http://www.w3.org/1999/02/22-rdf-syntax-ns#"
   xmlns:svg="http://www.w3.org/2000/svg"
   xmlns="http://www.w3.org/2000/svg"
   viewBox="0 0 853.33331 853.33331"
   height="853.33331"
   width="853.33331"
   xml:space="preserve"
   id="svg2"
   version="1.1"><metadata
     id="metadata8"><rdf:RDF><cc:Work
         rdf:about=""><dc:format>image/svg+xml</dc:format><dc:type
           rdf:resource="http://purl.org/dc/dcmitype/StillImage" /></cc:Work></rdf:RDF></metadata><defs
     id="defs6" /><g
     transform="matrix(1.3333333,0,0,-1.3333333,0,853.33333)"
     id="g10"><g
       transform="scale(0.1)"
       id="g12"><path
         id="path14"
         style="fill:#1b5065;fill-opacity:1;fill-rule:nonzero;stroke:none"
         d="m 835.352,4199.05 c -5.411,0 -10.899,1.1 -16.153,3.4 -20.281,8.94 -29.511,32.67 -20.578,52.95 10.82,24.52 22.016,48.88 33.567,73.03 9.589,20.01 33.582,28.43 53.554,18.82 19.988,-9.57 28.43,-33.57 18.836,-53.53 -11.18,-23.37 -22,-46.95 -32.461,-70.68 -6.629,-15.05 -21.347,-23.99 -36.765,-23.99 z m -78.016,-199.37 c -4.34,0 -8.731,0.73 -13.078,2.19 -20.957,7.22 -32.09,30.06 -24.903,51.03 11.79,34.23 24.415,68.58 37.532,102.09 8.074,20.64 31.441,30.79 52.008,22.73 20.656,-8.1 30.839,-31.36 22.746,-52.01 -12.703,-32.46 -24.942,-65.71 -36.336,-98.95 -5.727,-16.62 -21.301,-27.08 -37.969,-27.08 z m -85.207,-309.45 c -2.742,0 -5.488,0.26 -8.262,0.89 -21.719,4.49 -35.625,25.76 -31.074,47.46 14.746,70.62 32.695,141.5 53.34,210.76 6.355,21.28 28.703,33.4 49.953,27.03 21.25,-6.33 33.316,-28.7 27,-49.97 -20.02,-67.12 -37.402,-135.81 -51.731,-204.23 -3.945,-18.92 -20.64,-31.94 -39.226,-31.94 z m -54.816,-531.51 c -22.157,0 -40.133,17.98 -40.133,40.15 0,145.11 11.961,290.74 35.562,432.87 3.637,21.9 24.309,36.64 46.184,33.03 21.855,-3.66 36.648,-24.3 33.015,-46.21 -22.871,-137.79 -34.48,-278.98 -34.48,-419.69 0,-22.17 -17.981,-40.15 -40.148,-40.15" /><path
         id="path16"
         style="fill:#1b5065;fill-opacity:1;fill-rule:nonzero;stroke:none"
         d="M 3200,576.609 C 1753.78,576.609 577.18,1750 577.18,3200 h 80.281 C 657.461,1810 1798.05,656.891 3200,656.891 c 699.25,0 1351.02,277.73 1835.19,782.549 l 57.96,-55.43 C 4593.66,863.25 3921.34,576.609 3200,576.609" /><path
         id="path18"
         style="fill:#1b5065;fill-opacity:1;fill-rule:nonzero;stroke:none"
         d="m 4872.6,1501.26 379.07,128.65 -78.07,-392.62 z" /><path
         id="path20"
         style="fill:#1b5065;fill-opacity:1;fill-rule:nonzero;stroke:none"
         d="m 5747.73,2732.39 c -2.19,0 -4.38,0.21 -6.64,0.57 -21.84,3.61 -36.63,24.31 -33,46.16 22.85,137.68 34.45,278.93 34.45,419.75 0,22.16 17.98,40.14 40.15,40.14 22.16,0 40.13,-17.98 40.13,-40.14 0,-145.22 -11.93,-290.9 -35.54,-432.92 -3.27,-19.61 -20.28,-33.56 -39.55,-33.56 z m -72.28,-312.7 c -3.82,0 -7.66,0.52 -11.5,1.68 -21.25,6.32 -33.33,28.69 -27.01,49.92 20.03,67.12 37.41,135.85 51.73,204.23 4.52,21.74 25.87,35.8 47.49,31.1 21.71,-4.55 35.62,-25.82 31.08,-47.52 -14.75,-70.57 -32.71,-141.5 -53.35,-210.77 -5.2,-17.4 -21.17,-28.64 -38.44,-28.64 z m -69.71,-202.45 c -4.86,0 -9.8,0.89 -14.61,2.72 -20.65,8.1 -30.85,31.36 -22.79,52.01 12.91,32.99 25.15,66.28 36.36,98.95 7.23,20.96 30.06,32 51.04,24.94 20.96,-7.22 32.09,-30.06 24.9,-51.07 -11.6,-33.67 -24.22,-68.01 -37.5,-102.04 -6.2,-15.84 -21.35,-25.51 -37.4,-25.51 z m -68.97,-159.79 c -5.75,0 -11.56,1.2 -17.1,3.81 -20.04,9.47 -28.64,33.4 -19.18,53.42 9.35,19.87 18.5,39.89 27.36,60.01 8.97,20.33 32.68,29.48 52.93,20.6 20.31,-8.94 29.5,-32.67 20.57,-52.96 -9.17,-20.75 -18.59,-41.39 -28.25,-61.89 -6.85,-14.53 -21.28,-22.99 -36.33,-22.99" /><path
         id="path22"
         style="fill:#1b5065;fill-opacity:1;fill-rule:nonzero;stroke:none"
         d="m 5822.82,3200 h -80.28 c 0,1420 -1140.59,2541.96 -2542.54,2541.96 -698.33,0 -1349.49,-277.67 -1833.54,-781.34 l -57.89,55.47 C 1807.88,5535.68 2479.61,5822.31 3200,5822.31 4646.22,5822.31 5822.82,4640 5822.82,3200" /><path
         id="path24"
         style="fill:#1b5065;fill-opacity:1;fill-rule:nonzero;stroke:none"
         d="m 1529,4898.04 -379.18,-128.28 78.46,392.52 z" /><path
         id="path26"
         style="fill:#1b5065;fill-opacity:1;fill-rule:nonzero;stroke:none"
         d="m 4168.7,2100 h -2120 v 961.7 L 3158.52,4467.73 4168.7,3135.31 Z m -1850,1740 h 60 v -67.54 l -60,-67.96 z M 4445.63,3108.12 3176.59,4774.41 2458.7,3874.44 V 3920 h -210 v -317.49 l -380.79,-492.93 c -32,-40.61 -34.81,-99.52 5.83,-131.51 31.03,-24.41 74.96,-25.98 94.96,-7.37 V 2020 h 2280 v 1009.09 l 36.57,-33.93 c 18.41,-24.36 51.91,-37.16 80.24,-37.16 19.7,0 42.23,6.17 59.16,18.92 41.24,31.21 52.14,89.96 20.96,131.2" /><path
         id="path28"
         style="fill:#1b5065;fill-opacity:1;fill-rule:nonzero;stroke:none"
         d="m 2776.88,2742.37 15.08,16.31 c 10.43,10.49 20.83,21.01 32.04,30.63 10.82,10.06 22.59,19.03 34.13,28.15 11.93,8.71 23.77,17.43 36.28,25.17 12.13,8.31 25.15,15.13 37.8,22.56 13.11,6.5 25.91,13.72 39.36,19.39 l 20.05,8.81 c 6.71,2.82 13.61,5.23 20.41,7.84 13.51,5.46 27.44,9.61 41.24,14.06 13.8,4.55 28.02,7.61 41.95,11.48 14.09,3.31 28.29,6 42.4,9.01 l 0.5,0.13 0.78,0.11 c 14.05,1.9 30.57,6.25 45.62,11.24 15.35,5.09 30.49,11.1 45.2,18.18 14.79,6.91 29.15,14.82 43.09,23.4 13.91,8.7 27.55,17.87 40.46,28.07 6.64,4.91 13.02,10.14 19.22,15.55 6.38,5.23 12.46,10.79 18.42,16.49 6.12,5.6 12.05,11.34 17.7,17.41 5.77,5.93 11.58,11.86 16.91,18.19 11.13,12.28 21.3,25.43 31.49,38.57 9.67,13.55 19.43,27.03 28.1,41.3 9.3,13.86 16.94,28.75 25.24,43.23 7.45,15 15.53,29.69 22.04,45.16 3.37,7.66 6.93,15.27 10.16,23.01 l 9.21,23.41 c 6.48,15.53 11.16,31.7 16.78,47.54 5.22,16.02 9.56,32.28 14.4,48.43 l 11.99,49.11 9.91,49.64 8.07,50.02 c 0,0 -151.27,-131.7 -398.76,-159.28 -489.35,-54.49 -495.75,-419.95 -495.75,-419.95 -3.21,-116.2 20.5,-205.33 58.03,-273.75 8.2,11.87 17.01,23.31 26.08,34.44 4.78,5.65 9.45,11.4 14.37,16.94" /><path
         id="path30"
         style="fill:#1b5065;fill-opacity:1;fill-rule:nonzero;stroke:none"
         d="m 3572.91,3543.97 -5.9,-50.34 -7.84,-50.18 -9.91,-49.82 c -4.12,-16.41 -7.81,-32.98 -12.37,-49.34 -4.96,-16.2 -9.04,-32.78 -14.89,-48.72 l -8.31,-24.12 c -2.93,-7.97 -6.2,-15.84 -9.31,-23.76 -5.93,-16 -13.48,-31.31 -20.43,-46.89 -7.82,-15.16 -15.03,-30.71 -23.92,-45.35 -8.28,-14.97 -17.69,-29.32 -27.05,-43.7 -9.93,-13.98 -19.86,-28.04 -30.89,-41.26 -5.28,-6.85 -11.03,-13.25 -16.76,-19.68 -5.61,-6.57 -11.52,-12.84 -17.63,-18.95 -5.96,-6.23 -12.13,-12.31 -18.56,-18.09 -6.28,-5.96 -12.76,-11.73 -19.47,-17.2 -13.16,-11.31 -27.16,-21.64 -41.49,-31.47 -14.42,-9.74 -29.31,-18.81 -44.84,-26.92 -15.43,-8.2 -31.42,-15.45 -47.89,-21.69 -16.78,-6.22 -32.79,-11.5 -52.11,-15 l 1.25,0.21 c -13.35,-3.5 -26.79,-6.64 -40.04,-10.35 -13.11,-4.29 -26.44,-7.74 -39.31,-12.6 -12.86,-4.79 -25.85,-9.22 -38.32,-14.9 -6.27,-2.77 -12.59,-5.28 -18.81,-8.18 l -18.35,-9.07 c -12.34,-5.8 -23.92,-13.04 -35.8,-19.57 -11.4,-7.4 -23.19,-14.19 -34.04,-22.35 -11.23,-7.58 -21.74,-16.1 -32.3,-24.52 -10.19,-8.83 -20.62,-17.45 -30.08,-27.07 -9.85,-9.2 -18.9,-19.19 -27.97,-29.12 l -13.04,-15.37 c -4.24,-5.23 -8.23,-10.63 -12.36,-15.91 -8.03,-10.8 -15.76,-21.75 -22.87,-33.11 -4.13,-6.41 -8,-12.91 -11.82,-19.51 123,-161.05 326.5,-173.43 326.5,-173.43 464.97,6.22 494.03,419.48 494.03,419.48 39.73,323.73 -17.1,657.85 -17.1,657.85" /><path
         id="path32"
         style="fill:#1b5065;fill-opacity:1;fill-rule:nonzero;stroke:none"
         d="m 2788.96,2668.67 c -8.53,-12.13 -16.55,-24.62 -24.03,-37.43 -7.63,-12.75 -14.58,-25.9 -21.13,-39.23 -6.57,-13.35 -12.58,-26.97 -18.12,-40.8 -5.54,-13.85 -10.43,-28.02 -14.85,-42.39 -4.38,-14.64 -8.17,-28.54 -11.08,-45.16 -0.1,-0.48 -0.18,-1.02 -0.24,-1.47 -2.26,-17.51 10.12,-33.53 27.64,-35.8 17.5,-2.25 33.52,10.14 35.8,27.64 l 0.05,0.58 c 1.46,11.24 4.37,24.83 7.59,37.37 3.34,12.76 7.15,25.52 11.57,38.11 4.39,12.6 9.26,25.04 14.67,37.27 5.38,12.26 11.13,24.36 17.51,36.18 2.69,5.12 5.53,10.19 8.41,15.21 -11.86,15.55 -22.95,32.51 -33.06,50.94 -0.24,-0.34 -0.5,-0.66 -0.73,-1.02" /></g></g></svg>